# xmcd
#
# Track frame offsets:
#	150
#	28282
#	50737
#	83172
#	110640
#	132692
#	162402
#	191917
#	221262
#	244145
#	277115
#
# Disc length: 4189 seconds
#
# Revision: 1
# Processed by: cddbd v1.5.2PL0 Copyright (c) Steve Scherf et al.
# Submitted via: audiograbber 1.83.01
#
DISCID=af105b0b
DTITLE=Sioux - Dream Catcher
DYEAR=1999
DGENRE=Jazz/Funk
TTITLE0=May Feelings
TTITLE1=Diesel-Funk
TTITLE2=Razzle Dazzle
TTITLE3=Wedding In The Swamp
TTITLE4=Hawaiian Rain Dance
TTITLE5=The Return Of The Fritz Schnitzel
TTITLE6=Traffic Jam
TTITLE7=Looping
TTITLE8=Punkfunk
TTITLE9=You
TTITLE10=Heartland
EXTD=LC00793
EXTT0=
EXTT1=
EXTT2=
EXTT3=
EXTT4=
EXTT5=
EXTT6=
EXTT7=
EXTT8=
EXTT9=
EXTT10=
PLAYORDER=
